<svg xmlns="http://www.w3.org/2000/svg" xmlns:xlink="http://www.w3.org/1999/xlink" viewBox="0 0 600 600">
  <g id="ribbon">
    <g id="ribbonLayer" style="isolation: isolate">
      <path d="M442.5,123.75l32.25,42.75c-7.53,17.47-30.43,21.61-43.5,33.75V201l1.5.75c13-2.93,42.71,5.16,57,8.25-.32,15.72-4.91,45.92-10.5,56.25-21.63.49-28.05-11.3-48.75-12.75v.75c16.87,38.19,58.81,70.06,79.5,108l-.75,3.75c-12.43-.26-26.82,0-34.5,5.25l-12,35.25L460.5,405c-2.77-9.23-9.05-14.4-13.5-22.5-12.17-22.14-20.87-46.32-36-69-4.17-6.25-11.8-14.44-15-23.25l-2.25.75c-5.17,42.15,3.65,77.58-5.25,120l-1.5.75c-7.22-3.45-21.58-15.38-28.5-14.25-14.35,2.09-20.83,15-33.75,19.5-.32-19.74,3.94-38.79,8.25-55.5l9.75-57.75c.38-3.43-2.77-1.11-2.25-3.75,1.77-8.95,6.8-23,7.5-36.75h-.75l-1.5,1.5c-17.95,9.42-28.46,40.12-53.25,41.25-3.59-10.42-30-33.67-27.75-41.25,9.08-3.63,53.21-27.57,61.5-37.5l-1.5-2.25c-15.33,2.71-43.42-3.14-66-9l12-50.25,1.5-.75C290,175,321,187.09,343.5,191.25c5.45,1,8.32-3.3,12-4.5,11.84-3.86,21.07-3.56,31.5-9Z" fill="none" fill-rule="evenodd"/>
      <path d="M276.75,227.25l.75,1.5Z" fill="none" fill-rule="evenodd"/>
      <path d="M278.25,232.5v0Z" fill="none" fill-rule="evenodd"/>
      <path d="M274.5,284.25l2.25,1.5Z" fill="none" fill-rule="evenodd"/>
      <path d="M296.25,319.5l1.5,3H297Z" fill="none" fill-rule="evenodd"/>
    </g>
    <g id="Shadow" class="shadow">
      <image id="ribbonShadow_Imagen" data-name="ribbonShadow Imagen" width="336" height="392" transform="translate(258.75 123.75) scale(0.75)" xlink:href="assets/ribbon2.png"/>
    </g>
  </g>

  <g id="flower">
    <g id="flowerLayer" style="isolation: isolate">
      <path d="M372,267l19.5,1.5c5,2.26,12.52,9,18,12.75,4.77,3.23,8.12,12.9,11.25,18,7.13,11.63,24.85,17.72,30,29.25,7.95,17.81,4,29.09,2.25,46.5-1.65,16,10.35,22.84-7.5,35.25-13.4,9.32-41.51,3.76-63,8.25-9.39,2-23.37,9.92-36,7.5-13.91-2.66-15.77-9.07-24.75-14.25l-15.75-3c-1.06-.4-24.21-20.73-24.75-21.75-6.46-12.34,2.1-21.72.75-31.5-.39-2.82-4.53-5.06-3-10.5l7.5-16.5c1.87-8.89-5.76-12.63-2.25-21,7.2-16.09,24.51-19.57,45.75-21.75l13.5.75C353,281.9,362.61,272.8,372,267Z" transform="translate(-253.5 -248.25)" fill="none" fill-rule="evenodd"/>
    </g>
    <g id="Shadow" class="shadow">
      <image id="Layer_2_Imagen" data-name="Layer 2 Imagen" width="271" height="269" transform="scale(0.75)" xlink:href="assets/flower1.png"/>
    </g>
  </g>

  <g id="tassel">
    <g id="tasselLayer" style="isolation: isolate">
      <path d="M507,432h9.75v9c4.1.44,5,1.35,7.5,3-.35,23.62,2.43,46.56,8.25,65.25l9.75,25.5c-5.44-.49-3.26-3.57-9.75-3.75l-8.25-32.25h-.75l4.5,28.5c-1.58,1.26-1.48,1.16-4.5,1.5l1.5,9c-11.23,1.06-26.38,2.1-38.25-1.5-1.13-9.4,3.54-17.47,5.25-27l-1.5.75c-.62,8-5.49,24.63-12.75,26.25v-3c8.46-18.39,14.43-40.32,19.5-62.25,1.31-5.65,3.08-26.81,5.25-29.25L507,441Z" transform="translate(-477 -314.25)" fill="none" fill-rule="evenodd"/>
    </g>
    <g id="Shadow" class="shadow">
      <image id="shadow_Imagen" data-name="shadow Imagen" width="88" height="300" transform="scale(0.75)" xlink:href="assets/tassel1.png"/>
    </g>
  </g>

  <g id="butterfly">
    <g id="butterflyLayer" style="isolation: isolate">
      <path d="M244.5,239.25H249c4.95,6.8,19.05,10.43,21.75,23.25l6.75,1.5c8.36-6.35,16.95-12.18,30-14.25l3,3.75-3,3.75c7.63.92,12.84,3.51,18,6.75l1.5,3.75c-2.84,5.31-6,3.7-9.75,7.5-5.55,5.67-7.25,14.49-13.5,19.5,3.41,5.19,10.95,26,9.75,30.75L309,330c-15,.08-34.36-9.3-36.75-22.5l-5.25,3-2.25-4.5-12,9c-4.64,1.19-33.07.2-36-1.5L216,306l18.75-21a179.68,179.68,0,0,1-16.5-37.5l3-2.25c16.71-13.08,43.69,13.21,47.25,23.25h.75l-.75-2.25c1.13-13-16.95-16.31-24.75-23.25Z" transform="translate(-215.25 -238.5)" fill="none" fill-rule="evenodd"/>
      <path d="M299.25,255.75C292.53,260.4,284,260.69,279,267l.75,1.5c7.87-4.1,18.54-7.52,25.5-12Z" transform="translate(-215.25 -238.5)" fill="none" fill-rule="evenodd"/>
      <path d="M243,280.5v3.75c4.12.69,17.72,4.68,21-.75Z" transform="translate(-215.25 -238.5)" fill="none" fill-rule="evenodd"/>
      <path d="M276.75,285v3l18.75,3.75.75-3h-1.5Z" transform="translate(-215.25 -238.5)" fill="none" fill-rule="evenodd"/>
    </g>
    <g id="Shadow">
      <image id="butterflyShadow_Image" data-name="butterflyShadow Image" width="150" height="123" transform="scale(0.75)" xlink:href="assets/butterfly1.png"/>
    </g>
  </g>

  <g id="keychain">
    <g id="keychainLayer" style="isolation: isolate">
      <path d="M516,383.25h8.25c5.29,2.62,6.23,9.8,11.25,9.75-1.06,7.29,9.56,10.14,7.5,20.25-.59,2.91-3.54,4.46-4.5,8.25l.75.75c7.31-.71,13.29-.05,16.5,5.25,1.68,2.26,3.14,5.59,2.25,8.25-2.63,6.51-7.56,8.14-13.5,11.25,2.31,9,9.31,13.59,2.25,23.25C539,472.3,535,469.72,528,468l-.75.75c.31,8.75-1.38,11.77-4.5,16.5-3,.94-7,2.31-10.5.75-5.43-2.58-6-7.2-9.75-11.25-7.32,1.33-17.61,10.56-23.25.75-3.81-6.38.68-13.84,3-18.75l-.75-.75c-11.68.47-14.53-1.67-19.5-7.5l.75-8.25c3.87-5.24,7.74-6.16,15-8.25v-2.25c-4.2-2.81-11.17-9.26-7.5-17.25,5.11-11.79,17.35-.7,23.25-3-.21-16.66,7.51-13.37,14.25-21.75,3.85,2.29,4.56,2.27,8.25,0Z" transform="translate(-461.25 -335.25)" fill="none" fill-rule="evenodd"/>
      <path d="M504.75,423,495,432.75c-.29,7.4.51,11.68,3,15.75l4.5,3,13.5-.75C529.37,441.71,524.57,422.35,504.75,423Z" transform="translate(-461.25 -335.25)" fill="none" fill-rule="evenodd"/>
    </g>
    <g id="Shadow">
      <image id="Layer_2_Imagen" data-name="Layer 2 Imagen" width="130" height="203" transform="scale(0.75)" xlink:href="assets/keychain1.png"/>
    </g>
  </g>
</svg>
